<?xml version="1.0" encoding="UTF-8" standalone="no"?>
<!DOCTYPE svg PUBLIC "-//W3C//DTD SVG 1.1//EN" "http://www.w3.org/Graphics/SVG/1.1/DTD/svg11.dtd">
<svg width="100%" height="100%" viewBox="0 0 4500 175" version="1.1" xmlns="http://www.w3.org/2000/svg" xmlns:xlink="http://www.w3.org/1999/xlink" xml:space="preserve" xmlns:serif="http://www.serif.com/" style="fill-rule:evenodd;clip-rule:evenodd;stroke-linecap:round;stroke-linejoin:round;stroke-miterlimit:1.5;">
    <g transform="matrix(1,0,0,1,11.4062,42.3807)">
        <g>
            <path d="M41.487,14.211C41.487,14.211 51.149,27.225 62.149,53.337C68.485,68.38 64.289,67.208 71.258,53.882C85.123,27.369 94.223,14.369 94.223,14.369C94.223,14.369 71.258,53.882 66.636,70.477C62.669,52.753 41.487,14.211 41.487,14.211Z" style="fill:rgb(11,61,119);stroke:rgb(11,61,119);stroke-width:1.83px;"/>
        </g>
    </g>
    <g transform="matrix(1,0,0,1,4361.41,42.3807)">
        <g>
            <path d="M41.487,14.211C41.487,14.211 51.149,27.225 62.149,53.337C68.485,68.38 64.289,67.208 71.258,53.882C85.123,27.369 94.223,14.369 94.223,14.369C94.223,14.369 71.258,53.882 66.636,70.477C62.669,52.753 41.487,14.211 41.487,14.211Z" style="fill:rgb(11,61,119);stroke:rgb(11,61,119);stroke-width:1.83px;"/>
        </g>
    </g>
    <g transform="matrix(1,0,0,1,161.406,42.3807)">
        <g>
            <path d="M39.355,18.886C39.355,18.886 47.29,27.152 62.149,53.337C70.204,67.534 63.443,66.73 71.258,53.882C88.258,25.934 96.506,19.284 96.506,19.284C96.506,19.284 71.298,48.688 66.636,70.477C61.216,46.441 39.355,18.886 39.355,18.886Z" style="fill:rgb(11,61,119);stroke:rgb(11,61,119);stroke-width:1.83px;"/>
        </g>
    </g>
    <g transform="matrix(1,0,0,1,4211.59,41.943)">
        <g>
            <path d="M39.355,18.886C39.355,18.886 47.29,27.152 62.149,53.337C70.204,67.534 63.443,66.73 71.258,53.882C88.258,25.934 96.506,19.284 96.506,19.284C96.506,19.284 71.298,48.688 66.636,70.477C61.216,46.441 39.355,18.886 39.355,18.886Z" style="fill:rgb(11,61,119);stroke:rgb(11,61,119);stroke-width:1.83px;"/>
        </g>
    </g>
    <g transform="matrix(1,0,0,1,311.406,42.3807)">
        <g>
            <path d="M39.079,23.893C39.079,23.893 48.239,29.518 62.149,53.337C70.38,67.432 63.741,66.907 71.258,53.882C82.044,35.192 98.058,25.917 98.058,25.917C98.058,25.917 72.821,42.344 66.636,70.477C61.81,44.682 39.079,23.893 39.079,23.893Z" style="fill:rgb(11,61,119);stroke:rgb(11,61,119);stroke-width:1.83px;"/>
        </g>
    </g>
    <g transform="matrix(1,0,0,1,461.406,41.943)">
        <g>
            <path d="M39.136,31.808C39.136,31.808 55.461,44.285 62.032,54.394C68.552,64.424 65.594,63.764 71.972,54.693C80.589,42.439 99.041,31.144 99.041,31.144C99.041,31.144 68.99,49.76 66.636,70.477C65.595,50.4 39.136,31.808 39.136,31.808Z" style="fill:rgb(11,61,119);stroke:rgb(11,61,119);stroke-width:1.83px;"/>
        </g>
    </g>
    <g transform="matrix(1,0,0,1,4061.59,41.943)">
        <g>
            <path d="M39.136,31.808C39.136,31.808 55.461,44.285 62.032,54.394C68.552,64.424 65.594,63.764 71.972,54.693C80.589,42.439 99.041,31.144 99.041,31.144C99.041,31.144 68.99,49.76 66.636,70.477C65.595,50.4 39.136,31.808 39.136,31.808Z" style="fill:rgb(11,61,119);stroke:rgb(11,61,119);stroke-width:1.83px;"/>
        </g>
    </g>
    <g transform="matrix(1,0,0,1,611.406,41.943)">
        <g>
            <path d="M38.919,37.442C38.919,37.442 53.415,45.23 60.914,54.505C68.435,63.808 65.435,63.374 72.808,55.092C84.5,41.96 98.139,37.933 98.139,37.933C98.139,37.933 68.99,49.76 66.636,70.477C65.595,50.4 38.919,37.442 38.919,37.442Z" style="fill:rgb(11,61,119);stroke:rgb(11,61,119);stroke-width:1.83px;"/>
        </g>
    </g>
    <g transform="matrix(1,0,0,1,3911.59,41.943)">
        <g>
            <path d="M38.919,37.442C38.919,37.442 53.415,45.23 60.914,54.505C68.435,63.808 65.435,63.374 72.808,55.092C84.5,41.96 98.139,37.933 98.139,37.933C98.139,37.933 68.99,49.76 66.636,70.477C65.595,50.4 38.919,37.442 38.919,37.442Z" style="fill:rgb(11,61,119);stroke:rgb(11,61,119);stroke-width:1.83px;"/>
        </g>
    </g>
    <g transform="matrix(1,0,0,1,761.406,42.3807)">
        <g>
            <path d="M39.372,44.682C39.372,44.682 52.186,47.185 60.914,54.505C65.497,58.349 66.237,62.692 67.012,62.779C67.787,62.867 68.597,58.699 72.808,55.092C84.45,45.119 98.004,44.682 98.004,44.682C98.004,44.682 68.99,49.76 66.636,70.477C65.595,50.4 39.372,44.682 39.372,44.682Z" style="fill:rgb(11,61,119);stroke:rgb(11,61,119);stroke-width:1.83px;"/>
        </g>
    </g>
    <g transform="matrix(1,0,0,1,3761.59,41.943)">
        <g>
            <path d="M39.372,44.682C39.372,44.682 52.186,47.185 60.914,54.505C65.497,58.349 66.237,62.692 67.012,62.779C67.787,62.867 68.597,58.699 72.808,55.092C84.45,45.119 98.004,44.682 98.004,44.682C98.004,44.682 68.99,49.76 66.636,70.477C65.595,50.4 39.372,44.682 39.372,44.682Z" style="fill:rgb(11,61,119);stroke:rgb(11,61,119);stroke-width:1.83px;"/>
        </g>
    </g>
    <g transform="matrix(1,0,0,1,911.406,41.943)">
        <g>
            <path d="M38.223,50.922C38.223,50.922 50.574,50.527 59.648,56.57C64.626,59.886 66.237,62.692 67.012,62.779C67.787,62.867 70.012,59.322 74.632,56.256C84.015,50.029 96.045,51.338 96.045,51.338C96.045,51.338 68.99,49.76 66.636,70.477C65.595,50.4 38.223,50.922 38.223,50.922Z" style="fill:rgb(11,61,119);stroke:rgb(11,61,119);stroke-width:1.83px;"/>
        </g>
    </g>
    <g transform="matrix(1,0,0,1,3611.59,41.943)">
        <g>
            <path d="M38.223,50.922C38.223,50.922 50.574,50.527 59.648,56.57C64.626,59.886 66.237,62.692 67.012,62.779C67.787,62.867 70.012,59.322 74.632,56.256C84.015,50.029 96.045,51.338 96.045,51.338C96.045,51.338 68.99,49.76 66.636,70.477C65.595,50.4 38.223,50.922 38.223,50.922Z" style="fill:rgb(11,61,119);stroke:rgb(11,61,119);stroke-width:1.83px;"/>
        </g>
    </g>
    <g transform="matrix(1,0,0,1,1061.41,41.943)">
        <g>
            <path d="M38.068,58.017C38.068,58.017 47.26,53.974 55.662,56.222C66.111,59.018 66.035,65.555 66.81,65.642C67.585,65.73 69.293,58.573 79.022,56.548C86.788,54.932 95.421,58.017 95.421,58.017C95.421,58.017 68.99,49.76 66.636,70.477C65.595,50.4 38.068,58.017 38.068,58.017Z" style="fill:rgb(11,61,119);stroke:rgb(11,61,119);stroke-width:1.83px;"/>
        </g>
    </g>
    <g transform="matrix(1,0,0,1,3461.59,41.943)">
        <g>
            <path d="M38.068,58.017C38.068,58.017 47.26,53.974 55.662,56.222C66.111,59.018 66.035,65.555 66.81,65.642C67.585,65.73 69.293,58.573 79.022,56.548C86.788,54.932 95.421,58.017 95.421,58.017C95.421,58.017 68.99,49.76 66.636,70.477C65.595,50.4 38.068,58.017 38.068,58.017Z" style="fill:rgb(11,61,119);stroke:rgb(11,61,119);stroke-width:1.83px;"/>
        </g>
    </g>
    <g transform="matrix(1,0,0,1,1211.41,41.943)">
        <g>
            <path d="M37.638,63.009C37.638,63.009 43.994,59.622 53.662,58.307C64.379,56.849 66.035,65.555 66.81,65.642C67.585,65.73 71.418,56.267 81.125,58.397C91.511,60.676 95.169,63.009 95.169,63.009C95.169,63.009 68.99,49.76 66.636,70.477C65.595,50.4 37.638,63.009 37.638,63.009Z" style="fill:rgb(11,61,119);stroke:rgb(11,61,119);stroke-width:1.83px;"/>
        </g>
    </g>
    <g transform="matrix(1,0,0,1,2411.41,42.3807)">
        <g>
            <path d="M37.638,63.009C37.638,63.009 43.994,59.622 53.662,58.307C64.379,56.849 66.035,65.555 66.81,65.642C67.585,65.73 71.418,56.267 81.125,58.397C91.511,60.676 95.169,63.009 95.169,63.009C95.169,63.009 68.99,49.76 66.636,70.477C65.595,50.4 37.638,63.009 37.638,63.009Z" style="fill:rgb(11,61,119);stroke:rgb(11,61,119);stroke-width:1.83px;"/>
        </g>
    </g>
    <g transform="matrix(0.998837,0.0482181,-0.0482181,0.998837,2564.76,39.6913)">
        <g>
            <path d="M37.638,63.009C37.638,63.009 43.994,59.622 53.662,58.307C64.379,56.849 66.035,65.555 66.81,65.642C67.585,65.73 71.418,56.267 81.125,58.397C91.511,60.676 95.169,63.009 95.169,63.009C95.169,63.009 68.99,49.76 66.636,70.477C65.595,50.4 37.638,63.009 37.638,63.009Z" style="fill:rgb(11,61,119);stroke:rgb(11,61,119);stroke-width:1.83px;"/>
        </g>
    </g>
    <g transform="matrix(0.994404,0.105646,-0.105646,0.994404,2718.75,36.1629)">
        <g>
            <path d="M37.638,63.009C37.638,63.009 43.994,59.622 53.662,58.307C64.379,56.849 66.035,65.555 66.81,65.642C67.585,65.73 71.418,56.267 81.125,58.397C91.511,60.676 95.169,63.009 95.169,63.009C95.169,63.009 68.99,49.76 66.636,70.477C65.595,50.4 37.638,63.009 37.638,63.009Z" style="fill:rgb(11,61,119);stroke:rgb(11,61,119);stroke-width:1.83px;"/>
        </g>
    </g>
    <g transform="matrix(0.994404,0.105646,-0.105646,0.994404,2868.75,35.7252)">
        <g>
            <path d="M37.638,63.009C37.638,63.009 43.994,59.622 53.662,58.307C64.379,56.849 66.035,65.555 66.81,65.642C67.585,65.73 71.418,56.267 81.125,58.397C91.511,60.676 95.169,63.009 95.169,63.009C95.169,63.009 68.99,49.76 66.636,70.477C65.595,50.4 37.638,63.009 37.638,63.009Z" style="fill:rgb(11,61,119);stroke:rgb(11,61,119);stroke-width:1.83px;"/>
        </g>
    </g>
    <g transform="matrix(0.99965,-0.0264653,0.0264653,0.99965,3009.91,43.7229)">
        <g>
            <path d="M37.638,63.009C37.638,63.009 43.994,59.622 53.662,58.307C64.379,56.849 66.035,65.555 66.81,65.642C67.585,65.73 71.418,56.267 81.125,58.397C91.511,60.676 95.169,63.009 95.169,63.009C95.169,63.009 68.99,49.76 66.636,70.477C65.595,50.4 37.638,63.009 37.638,63.009Z" style="fill:rgb(11,61,119);stroke:rgb(11,61,119);stroke-width:1.83px;"/>
        </g>
    </g>
    <g transform="matrix(0.99965,-0.0264653,0.0264653,0.99965,3159.91,43.7229)">
        <g>
            <path d="M37.638,63.009C37.638,63.009 43.994,59.622 53.662,58.307C64.379,56.849 66.035,65.555 66.81,65.642C67.585,65.73 71.418,56.267 81.125,58.397C91.511,60.676 95.169,63.009 95.169,63.009C95.169,63.009 68.99,49.76 66.636,70.477C65.595,50.4 37.638,63.009 37.638,63.009Z" style="fill:rgb(11,61,119);stroke:rgb(11,61,119);stroke-width:1.83px;"/>
        </g>
    </g>
    <g transform="matrix(1,0,0,1,3311.59,41.943)">
        <g>
            <path d="M37.638,63.009C37.638,63.009 43.994,59.622 53.662,58.307C64.379,56.849 66.035,65.555 66.81,65.642C67.585,65.73 71.418,56.267 81.125,58.397C91.511,60.676 95.169,63.009 95.169,63.009C95.169,63.009 68.99,49.76 66.636,70.477C65.595,50.4 37.638,63.009 37.638,63.009Z" style="fill:rgb(11,61,119);stroke:rgb(11,61,119);stroke-width:1.83px;"/>
        </g>
    </g>
    <g transform="matrix(1,0,0,1,1361.41,41.943)">
        <g>
            <path d="M40.141,67.377C40.141,67.377 47.542,62.163 52.547,60.697C65.021,57.045 66.035,65.555 66.81,65.642C67.585,65.73 71.216,56.096 83.526,61.959C88.381,64.271 94.943,68.785 94.943,68.785C94.943,68.785 68.99,49.76 66.636,70.477C65.595,50.4 40.141,67.377 40.141,67.377Z" style="fill:rgb(11,61,119);stroke:rgb(11,61,119);stroke-width:1.83px;"/>
        </g>
    </g>
    <g transform="matrix(1,0,0,1,2261.41,42.3807)">
        <g>
            <path d="M40.141,67.377C40.141,67.377 47.542,62.163 52.547,60.697C65.021,57.045 66.035,65.555 66.81,65.642C67.585,65.73 71.216,56.096 83.526,61.959C88.381,64.271 94.943,68.785 94.943,68.785C94.943,68.785 68.99,49.76 66.636,70.477C65.595,50.4 40.141,67.377 40.141,67.377Z" style="fill:rgb(11,61,119);stroke:rgb(11,61,119);stroke-width:1.83px;"/>
        </g>
    </g>
    <g transform="matrix(1,0,0,1,1511.41,41.943)">
        <g>
            <path d="M43.863,73.225C43.863,73.225 47.806,68.042 52.886,64.071C63.126,56.066 65.747,65.679 66.801,65.641C67.756,65.606 69.946,54.855 80.797,64.281C83.818,66.906 89.086,73.028 89.086,73.028C89.086,73.028 68.99,49.76 66.636,70.477C65.595,50.4 43.863,73.225 43.863,73.225Z" style="fill:rgb(11,61,119);stroke:rgb(11,61,119);stroke-width:1.83px;"/>
        </g>
    </g>
    <g transform="matrix(1,0,0,1,2111.41,41.943)">
        <g>
            <path d="M43.863,73.225C43.863,73.225 47.806,68.042 52.886,64.071C63.126,56.066 65.747,65.679 66.801,65.641C67.756,65.606 69.946,54.855 80.797,64.281C83.818,66.906 89.086,73.028 89.086,73.028C89.086,73.028 68.99,49.76 66.636,70.477C65.595,50.4 43.863,73.225 43.863,73.225Z" style="fill:rgb(11,61,119);stroke:rgb(11,61,119);stroke-width:1.83px;"/>
        </g>
    </g>
    <g transform="matrix(1,0,0,1,1661.41,42.3807)">
        <g>
            <path d="M48.191,75.325C48.191,75.325 50.574,71.399 55.481,66.053C64.271,56.479 65.747,65.679 66.801,65.641C67.756,65.606 69.607,55.432 78.919,66.38C82.032,70.039 85.213,75.62 85.213,75.62C85.213,75.62 68.99,49.76 66.636,70.477C65.595,50.4 48.191,75.325 48.191,75.325Z" style="fill:rgb(11,61,119);stroke:rgb(11,61,119);stroke-width:1.83px;"/>
        </g>
    </g>
    <g transform="matrix(1,0,0,1,1961.41,41.943)">
        <g>
            <path d="M48.191,75.325C48.191,75.325 50.574,71.399 55.481,66.053C64.271,56.479 65.747,65.679 66.801,65.641C67.756,65.606 69.607,55.432 78.919,66.38C82.032,70.039 85.213,75.62 85.213,75.62C85.213,75.62 68.99,49.76 66.636,70.477C65.595,50.4 48.191,75.325 48.191,75.325Z" style="fill:rgb(11,61,119);stroke:rgb(11,61,119);stroke-width:1.83px;"/>
        </g>
    </g>
    <g transform="matrix(1,0,0,1,1811.41,42.3807)">
        <g>
            <path d="M54.165,77.411C54.165,77.411 53.262,76.686 53.884,74.66C54.505,72.634 56.65,69.306 58.162,66.38C64.128,54.833 65.747,65.679 66.801,65.641C67.756,65.606 69.222,54.97 76.371,67.439C78.038,70.347 79.169,73.512 79.735,75.287C80.014,76.164 79.37,77.66 79.37,77.66C79.37,77.66 79.702,76.001 78.933,74.198C76.105,67.568 68.487,54.189 66.636,70.477C65.792,54.196 57.228,68.432 54.019,74.398C53.271,75.789 54.165,77.411 54.165,77.411Z" style="fill:rgb(11,61,119);stroke:rgb(11,61,119);stroke-width:1.83px;"/>
        </g>
    </g>
</svg>
