<?xml version="1.0" encoding="UTF-8" standalone="no"?>
<!DOCTYPE svg PUBLIC "-//W3C//DTD SVG 1.1//EN" "http://www.w3.org/Graphics/SVG/1.1/DTD/svg11.dtd">
<svg width="100%" height="100%" viewBox="0 0 800 600" version="1.1" xmlns="http://www.w3.org/2000/svg" xmlns:xlink="http://www.w3.org/1999/xlink" xml:space="preserve" xmlns:serif="http://www.serif.com/" style="fill-rule:evenodd;clip-rule:evenodd;stroke-linecap:round;stroke-linejoin:round;stroke-miterlimit:1.5;">
    <g transform="matrix(0.349828,0,0,0.219839,183.567,-236.165)">
        <g transform="matrix(0.992749,0.114852,-0.114925,0.993374,457.508,74.9979)">
            <path d="M313.294,2305.42C330.221,2278.2 357.641,2275.66 379.81,2283.11C392.68,2287.43 412.92,2317.54 412.92,2317.54C412.92,2317.54 392.152,2250.66 441.983,2239.09C503.437,2224.81 513.896,2282.34 513.896,2282.34C513.896,2282.34 513.896,2223.03 566.923,2217.87C643.358,2210.43 632.673,2276.09 632.673,2276.09C632.673,2276.09 658.308,2219.65 682.674,2196.16C706.554,2173.14 725.013,2169.83 739.507,2171.21C795.191,2176.49 786.579,2238.93 786.579,2238.93C786.579,2238.93 860.115,2210.67 881.436,2219.73C902.757,2228.79 898.515,2278.41 914.505,2293.29C930.32,2308 977.376,2308.99 977.376,2308.99C977.376,2308.99 1054.73,2288.69 1074.05,2300.43C1172.74,2360.36 1043.36,2365.97 1009.44,2376.81C991.759,2382.46 951.961,2352.37 911.185,2384.61C884.19,2405.96 836.85,2375.93 836.85,2375.93C836.85,2375.93 814.29,2404.72 776.16,2409.94C723.632,2417.14 706.407,2386.7 706.407,2386.7C706.407,2386.7 697.399,2420.15 637.317,2428.19C534.189,2441.99 537.036,2400 545.76,2388.14C545.76,2388.14 544.678,2438.44 442.06,2456.52C316.425,2478.65 343.257,2420 343.257,2420C377.569,2488.93 157.905,2546.36 158.737,2446.33C158.965,2418.87 213.936,2402.95 231.438,2384.77C244.727,2370.96 252.784,2342.3 263.75,2337.21C274.715,2332.12 297.231,2354.23 297.231,2354.23C297.231,2354.23 298.149,2329.77 313.294,2305.42Z" style="fill:white;fill-rule:nonzero;stroke:white;stroke-width:18.81px;"/>
        </g>
        <g transform="matrix(0.993374,0.114925,-0.114925,0.993374,444.731,63.1088)">
            <path d="M313.294,2305.42C330.221,2278.2 357.641,2275.66 379.81,2283.11C392.68,2287.43 412.92,2317.54 412.92,2317.54C412.92,2317.54 392.152,2250.66 441.983,2239.09C503.437,2224.81 513.896,2282.34 513.896,2282.34C513.896,2282.34 513.896,2223.03 566.923,2217.87C643.358,2210.43 632.673,2276.09 632.673,2276.09C632.673,2276.09 658.308,2219.65 682.674,2196.16C706.554,2173.14 725.013,2169.83 739.507,2171.21C795.191,2176.49 786.579,2238.93 786.579,2238.93C786.579,2238.93 860.115,2210.67 881.436,2219.73C902.757,2228.79 898.515,2278.41 914.505,2293.29C930.32,2308 977.376,2308.99 977.376,2308.99C977.376,2308.99 1054.73,2288.69 1074.05,2300.43C1172.74,2360.36 1043.36,2365.97 1009.44,2376.81C991.759,2382.46 951.961,2352.37 911.185,2384.61C884.19,2405.96 836.85,2375.93 836.85,2375.93C836.85,2375.93 814.29,2404.72 776.16,2409.94C723.632,2417.14 706.407,2386.7 706.407,2386.7C706.407,2386.7 697.399,2420.15 637.317,2428.19C534.189,2441.99 537.036,2400 545.76,2388.14C545.76,2388.14 544.678,2438.44 442.06,2456.52C316.425,2478.65 343.257,2420 343.257,2420C377.569,2488.93 157.905,2546.36 158.737,2446.33C158.965,2418.87 213.936,2402.95 231.438,2384.77C244.727,2370.96 252.784,2342.3 263.75,2337.21C274.715,2332.12 297.231,2354.23 297.231,2354.23C297.231,2354.23 298.149,2329.77 313.294,2305.42Z" style="fill:rgb(11,61,119);fill-rule:nonzero;"/>
        </g>
        <g transform="matrix(0.993374,0.114925,-0.114925,0.993374,419.254,51.2713)">
            <path d="M313.294,2305.42C330.221,2278.2 357.641,2275.66 379.81,2283.11C392.68,2287.43 412.92,2317.54 412.92,2317.54C412.92,2317.54 392.152,2250.66 441.983,2239.09C503.437,2224.81 513.896,2282.34 513.896,2282.34C513.896,2282.34 513.896,2223.03 566.923,2217.87C643.358,2210.43 632.673,2276.09 632.673,2276.09C632.673,2276.09 658.308,2219.65 682.674,2196.16C706.554,2173.14 725.013,2169.83 739.507,2171.21C795.191,2176.49 786.579,2238.93 786.579,2238.93C786.579,2238.93 860.115,2210.67 881.436,2219.73C902.757,2228.79 898.515,2278.41 914.505,2293.29C930.32,2308 977.376,2308.99 977.376,2308.99C977.376,2308.99 1054.73,2288.69 1074.05,2300.43C1172.74,2360.36 1043.36,2365.97 1009.44,2376.81C991.759,2382.46 951.961,2352.37 911.185,2384.61C884.19,2405.96 836.85,2375.93 836.85,2375.93C836.85,2375.93 814.29,2404.72 776.16,2409.94C723.632,2417.14 706.407,2386.7 706.407,2386.7C706.407,2386.7 697.399,2420.15 637.317,2428.19C534.189,2441.99 537.036,2400 545.76,2388.14C545.76,2388.14 544.678,2438.44 442.06,2456.52C316.425,2478.65 343.257,2420 343.257,2420C377.569,2488.93 157.905,2546.36 158.737,2446.33C158.965,2418.87 213.936,2402.95 231.438,2384.77C244.727,2370.96 252.784,2342.3 263.75,2337.21C274.715,2332.12 297.231,2354.23 297.231,2354.23C297.231,2354.23 298.149,2329.77 313.294,2305.42Z" style="fill:white;fill-rule:nonzero;stroke:white;stroke-width:18.8px;"/>
        </g>
    </g>
</svg>
