<?xml version="1.0" encoding="UTF-8" standalone="no"?>
<!DOCTYPE svg PUBLIC "-//W3C//DTD SVG 1.1//EN" "http://www.w3.org/Graphics/SVG/1.1/DTD/svg11.dtd">
<svg width="100%" height="100%" viewBox="0 0 800 600" version="1.1" xmlns="http://www.w3.org/2000/svg" xmlns:xlink="http://www.w3.org/1999/xlink" xml:space="preserve" xmlns:serif="http://www.serif.com/" style="fill-rule:evenodd;clip-rule:evenodd;stroke-linecap:round;stroke-linejoin:round;stroke-miterlimit:1.5;">
    <g transform="matrix(0.39325,0,0,0.39325,-763.433,-662.475)">
        <g transform="matrix(0.687268,0,0,0.413155,793.852,1581.82)">
            <g transform="matrix(-0.738782,0.0743378,0.0516921,0.513725,3522.58,1149.85)">
                <path d="M253.399,2162.53C253.399,2162.53 247.437,1991.31 336.123,1996.39C393.401,1999.67 391.001,2138.91 391.001,2138.91C391.001,2138.91 425.33,2004.04 478.357,1998.87C554.792,1991.43 617.428,2114.28 617.428,2114.28C617.428,2114.28 648.822,1985.75 699.058,1984.89C754.899,1983.93 815.817,2093.14 815.817,2093.14C815.817,2093.14 886.533,2021.08 924.788,2031.47C963.042,2041.86 1045.34,2155.48 1045.34,2155.48C1045.34,2155.48 1134.17,2113.97 1165.55,2136.11C1196.92,2158.24 1233.59,2288.32 1233.59,2288.32C1233.59,2288.32 1367.5,2106.95 1382.58,2306.95C1393.68,2454.05 1208.7,2462.4 1105.93,2346.99C1040.72,2273.77 937.334,2371.08 911.185,2384.61C881.654,2399.89 836.85,2375.93 836.85,2375.93C836.85,2375.93 814.29,2404.72 776.16,2409.94C723.632,2417.14 706.407,2386.7 706.407,2386.7C706.407,2386.7 607.387,2452.72 547.306,2460.76C444.177,2474.56 377.094,2410.1 377.094,2410.1C377.094,2410.1 298.411,2546.15 175.993,2601.32C71.895,2648.24 -78.16,2622.4 -85.514,2557C-139.642,2075.64 67.724,2441.86 67.724,2441.86C67.724,2441.86 59.46,2371.29 70.067,2294.73C77.443,2241.48 28.134,2231.28 26.151,2161.02C24.058,2086.84 41.568,2031.64 128.56,2033.89C188.785,2035.44 253.399,2162.53 253.399,2162.53Z" style="fill:white;fill-rule:nonzero;stroke:white;stroke-width:35.72px;"/>
            </g>
            <g transform="matrix(-0.711516,0.0715942,0.0542342,0.538989,3498.3,1083.81)">
                <path d="M253.399,2162.53C253.399,2162.53 247.437,1991.31 336.123,1996.39C393.401,1999.67 391.001,2138.91 391.001,2138.91C391.001,2138.91 425.33,2004.04 478.357,1998.87C554.792,1991.43 617.428,2114.28 617.428,2114.28C617.428,2114.28 648.822,1985.75 699.058,1984.89C754.899,1983.93 815.817,2093.14 815.817,2093.14C815.817,2093.14 886.533,2021.08 924.788,2031.47C963.042,2041.86 1045.34,2155.48 1045.34,2155.48C1045.34,2155.48 1134.17,2113.97 1165.55,2136.11C1196.92,2158.24 1233.59,2288.32 1233.59,2288.32C1233.59,2288.32 1367.5,2106.95 1382.58,2306.95C1393.68,2454.05 1208.7,2462.4 1105.93,2346.99C1040.72,2273.77 937.334,2371.08 911.185,2384.61C881.654,2399.89 836.85,2375.93 836.85,2375.93C836.85,2375.93 814.29,2404.72 776.16,2409.94C723.632,2417.14 706.407,2386.7 706.407,2386.7C706.407,2386.7 607.387,2452.72 547.306,2460.76C444.177,2474.56 377.094,2410.1 377.094,2410.1C377.094,2410.1 298.411,2546.15 175.993,2601.32C71.895,2648.24 -78.16,2622.4 -85.514,2557C-139.642,2075.64 67.724,2441.86 67.724,2441.86C67.724,2441.86 59.46,2371.29 70.067,2294.73C77.443,2241.48 28.134,2231.28 26.151,2161.02C24.058,2086.84 41.568,2031.64 128.56,2033.89C188.785,2035.44 253.399,2162.53 253.399,2162.53Z" style="fill:rgb(11,61,119);fill-rule:nonzero;"/>
            </g>
            <g transform="matrix(-0.711516,0.0715942,0.0516921,0.513725,3484.88,1120)">
                <path d="M253.399,2162.53C253.399,2162.53 247.437,1991.31 336.123,1996.39C393.401,1999.67 391.001,2138.91 391.001,2138.91C391.001,2138.91 425.33,2004.04 478.357,1998.87C554.792,1991.43 617.428,2114.28 617.428,2114.28C617.428,2114.28 648.822,1985.75 699.058,1984.89C754.899,1983.93 815.817,2093.14 815.817,2093.14C815.817,2093.14 886.533,2021.08 924.788,2031.47C963.042,2041.86 1045.34,2155.48 1045.34,2155.48C1045.34,2155.48 1134.17,2113.97 1165.55,2136.11C1196.92,2158.24 1233.59,2288.32 1233.59,2288.32C1233.59,2288.32 1367.5,2106.95 1382.58,2306.95C1393.68,2454.05 1208.7,2462.4 1105.93,2346.99C1040.72,2273.77 937.334,2371.08 911.185,2384.61C881.654,2399.89 836.85,2375.93 836.85,2375.93C836.85,2375.93 814.29,2404.72 776.16,2409.94C723.632,2417.14 706.407,2386.7 706.407,2386.7C706.407,2386.7 607.387,2452.72 547.306,2460.76C444.177,2474.56 377.094,2410.1 377.094,2410.1C377.094,2410.1 298.411,2546.15 175.993,2601.32C71.895,2648.24 -78.16,2622.4 -85.514,2557C-139.642,2075.64 67.724,2441.86 67.724,2441.86C67.724,2441.86 59.46,2371.29 70.067,2294.73C77.443,2241.48 28.134,2231.28 26.151,2161.02C24.058,2086.84 41.568,2031.64 128.56,2033.89C188.785,2035.44 253.399,2162.53 253.399,2162.53Z" style="fill:white;fill-rule:nonzero;stroke:white;stroke-width:36.91px;"/>
            </g>
        </g>
        <g transform="matrix(0.824233,0,0,0.535204,385.036,1268.39)">
            <g transform="matrix(-0.738782,0.0743378,0.0516921,0.513725,3522.58,1149.85)">
                <path d="M253.399,2162.53C253.399,2162.53 247.437,1991.31 336.123,1996.39C393.401,1999.67 391.001,2138.91 391.001,2138.91C391.001,2138.91 425.33,2004.04 478.357,1998.87C554.792,1991.43 617.428,2114.28 617.428,2114.28C617.428,2114.28 648.822,1985.75 699.058,1984.89C754.899,1983.93 815.817,2093.14 815.817,2093.14C815.817,2093.14 886.533,2021.08 924.788,2031.47C963.042,2041.86 1045.34,2155.48 1045.34,2155.48C1045.34,2155.48 1134.17,2113.97 1165.55,2136.11C1196.92,2158.24 1233.59,2288.32 1233.59,2288.32C1233.59,2288.32 1367.5,2106.95 1382.58,2306.95C1393.68,2454.05 1208.7,2462.4 1105.93,2346.99C1040.72,2273.77 937.334,2371.08 911.185,2384.61C881.654,2399.89 836.85,2375.93 836.85,2375.93C836.85,2375.93 814.29,2404.72 776.16,2409.94C723.632,2417.14 706.407,2386.7 706.407,2386.7C706.407,2386.7 607.387,2452.72 547.306,2460.76C444.177,2474.56 377.094,2410.1 377.094,2410.1C377.094,2410.1 298.411,2546.15 175.993,2601.32C71.895,2648.24 -78.16,2622.4 -85.514,2557C-139.642,2075.64 67.724,2441.86 67.724,2441.86C67.724,2441.86 59.46,2371.29 70.067,2294.73C77.443,2241.48 28.134,2231.28 26.151,2161.02C24.058,2086.84 41.568,2031.64 128.56,2033.89C188.785,2035.44 253.399,2162.53 253.399,2162.53Z" style="fill:white;fill-rule:nonzero;stroke:white;stroke-width:29.28px;"/>
            </g>
            <g transform="matrix(-0.711516,0.0715942,0.0542342,0.538989,3498.3,1083.81)">
                <path d="M253.399,2162.53C253.399,2162.53 247.437,1991.31 336.123,1996.39C393.401,1999.67 391.001,2138.91 391.001,2138.91C391.001,2138.91 425.33,2004.04 478.357,1998.87C554.792,1991.43 617.428,2114.28 617.428,2114.28C617.428,2114.28 648.822,1985.75 699.058,1984.89C754.899,1983.93 815.817,2093.14 815.817,2093.14C815.817,2093.14 886.533,2021.08 924.788,2031.47C963.042,2041.86 1045.34,2155.48 1045.34,2155.48C1045.34,2155.48 1134.17,2113.97 1165.55,2136.11C1196.92,2158.24 1233.59,2288.32 1233.59,2288.32C1233.59,2288.32 1367.5,2106.95 1382.58,2306.95C1393.68,2454.05 1208.7,2462.4 1105.93,2346.99C1040.72,2273.77 937.334,2371.08 911.185,2384.61C881.654,2399.89 836.85,2375.93 836.85,2375.93C836.85,2375.93 814.29,2404.72 776.16,2409.94C723.632,2417.14 706.407,2386.7 706.407,2386.7C706.407,2386.7 607.387,2452.72 547.306,2460.76C444.177,2474.56 377.094,2410.1 377.094,2410.1C377.094,2410.1 298.411,2546.15 175.993,2601.32C71.895,2648.24 -78.16,2622.4 -85.514,2557C-139.642,2075.64 67.724,2441.86 67.724,2441.86C67.724,2441.86 59.46,2371.29 70.067,2294.73C77.443,2241.48 28.134,2231.28 26.151,2161.02C24.058,2086.84 41.568,2031.64 128.56,2033.89C188.785,2035.44 253.399,2162.53 253.399,2162.53Z" style="fill:rgb(11,61,119);fill-rule:nonzero;"/>
            </g>
            <g transform="matrix(-0.711516,0.0715942,0.0516921,0.513725,3484.88,1120)">
                <path d="M253.399,2162.53C253.399,2162.53 247.437,1991.31 336.123,1996.39C393.401,1999.67 391.001,2138.91 391.001,2138.91C391.001,2138.91 425.33,2004.04 478.357,1998.87C554.792,1991.43 617.428,2114.28 617.428,2114.28C617.428,2114.28 648.822,1985.75 699.058,1984.89C754.899,1983.93 815.817,2093.14 815.817,2093.14C815.817,2093.14 886.533,2021.08 924.788,2031.47C963.042,2041.86 1045.34,2155.48 1045.34,2155.48C1045.34,2155.48 1134.17,2113.97 1165.55,2136.11C1196.92,2158.24 1233.59,2288.32 1233.59,2288.32C1233.59,2288.32 1367.5,2106.95 1382.58,2306.95C1393.68,2454.05 1208.7,2462.4 1105.93,2346.99C1040.72,2273.77 937.334,2371.08 911.185,2384.61C881.654,2399.89 836.85,2375.93 836.85,2375.93C836.85,2375.93 814.29,2404.72 776.16,2409.94C723.632,2417.14 706.407,2386.7 706.407,2386.7C706.407,2386.7 607.387,2452.72 547.306,2460.76C444.177,2474.56 377.094,2410.1 377.094,2410.1C377.094,2410.1 298.411,2546.15 175.993,2601.32C71.895,2648.24 -78.16,2622.4 -85.514,2557C-139.642,2075.64 67.724,2441.86 67.724,2441.86C67.724,2441.86 59.46,2371.29 70.067,2294.73C77.443,2241.48 28.134,2231.28 26.151,2161.02C24.058,2086.84 41.568,2031.64 128.56,2033.89C188.785,2035.44 253.399,2162.53 253.399,2162.53Z" style="fill:white;fill-rule:nonzero;stroke:white;stroke-width:30.23px;"/>
            </g>
        </g>
        <g transform="matrix(0.977691,0,0,0.453163,-101.389,1446.34)">
            <g transform="matrix(-0.738782,0.0743378,0.0516921,0.513725,3522.58,1149.85)">
                <path d="M253.399,2162.53C253.399,2162.53 247.437,1991.31 336.123,1996.39C393.401,1999.67 391.001,2138.91 391.001,2138.91C391.001,2138.91 425.33,2004.04 478.357,1998.87C554.792,1991.43 617.428,2114.28 617.428,2114.28C617.428,2114.28 648.822,1985.75 699.058,1984.89C754.899,1983.93 815.817,2093.14 815.817,2093.14C815.817,2093.14 886.533,2021.08 924.788,2031.47C963.042,2041.86 1045.34,2155.48 1045.34,2155.48C1045.34,2155.48 1134.17,2113.97 1165.55,2136.11C1196.92,2158.24 1233.59,2288.32 1233.59,2288.32C1233.59,2288.32 1367.5,2106.95 1382.58,2306.95C1393.68,2454.05 1208.7,2462.4 1105.93,2346.99C1040.72,2273.77 937.334,2371.08 911.185,2384.61C881.654,2399.89 836.85,2375.93 836.85,2375.93C836.85,2375.93 814.29,2404.72 776.16,2409.94C723.632,2417.14 706.407,2386.7 706.407,2386.7C706.407,2386.7 607.387,2452.72 547.306,2460.76C444.177,2474.56 377.094,2410.1 377.094,2410.1C377.094,2410.1 298.411,2546.15 175.993,2601.32C71.895,2648.24 -78.16,2622.4 -85.514,2557C-139.642,2075.64 67.724,2441.86 67.724,2441.86C67.724,2441.86 59.46,2371.29 70.067,2294.73C77.443,2241.48 28.134,2231.28 26.151,2161.02C24.058,2086.84 41.568,2031.64 128.56,2033.89C188.785,2035.44 253.399,2162.53 253.399,2162.53Z" style="fill:white;fill-rule:nonzero;stroke:white;stroke-width:26.25px;"/>
            </g>
            <g transform="matrix(-0.711516,0.0715942,0.0542342,0.538989,3498.3,1083.81)">
                <path d="M253.399,2162.53C253.399,2162.53 247.437,1991.31 336.123,1996.39C393.401,1999.67 391.001,2138.91 391.001,2138.91C391.001,2138.91 425.33,2004.04 478.357,1998.87C554.792,1991.43 617.428,2114.28 617.428,2114.28C617.428,2114.28 648.822,1985.75 699.058,1984.89C754.899,1983.93 815.817,2093.14 815.817,2093.14C815.817,2093.14 886.533,2021.08 924.788,2031.47C963.042,2041.86 1045.34,2155.48 1045.34,2155.48C1045.34,2155.48 1134.17,2113.97 1165.55,2136.11C1196.92,2158.24 1233.59,2288.32 1233.59,2288.32C1233.59,2288.32 1367.5,2106.95 1382.58,2306.95C1393.68,2454.05 1208.7,2462.4 1105.93,2346.99C1040.72,2273.77 937.334,2371.08 911.185,2384.61C881.654,2399.89 836.85,2375.93 836.85,2375.93C836.85,2375.93 814.29,2404.72 776.16,2409.94C723.632,2417.14 706.407,2386.7 706.407,2386.7C706.407,2386.7 607.387,2452.72 547.306,2460.76C444.177,2474.56 377.094,2410.1 377.094,2410.1C377.094,2410.1 298.411,2546.15 175.993,2601.32C71.895,2648.24 -78.16,2622.4 -85.514,2557C-139.642,2075.64 67.724,2441.86 67.724,2441.86C67.724,2441.86 59.46,2371.29 70.067,2294.73C77.443,2241.48 28.134,2231.28 26.151,2161.02C24.058,2086.84 41.568,2031.64 128.56,2033.89C188.785,2035.44 253.399,2162.53 253.399,2162.53Z" style="fill:rgb(11,61,119);fill-rule:nonzero;"/>
            </g>
            <g transform="matrix(-0.711516,0.0715942,0.0516921,0.513725,3484.88,1120)">
                <path d="M253.399,2162.53C253.399,2162.53 247.437,1991.31 336.123,1996.39C393.401,1999.67 391.001,2138.91 391.001,2138.91C391.001,2138.91 425.33,2004.04 478.357,1998.87C554.792,1991.43 617.428,2114.28 617.428,2114.28C617.428,2114.28 648.822,1985.75 699.058,1984.89C754.899,1983.93 815.817,2093.14 815.817,2093.14C815.817,2093.14 886.533,2021.08 924.788,2031.47C963.042,2041.86 1045.34,2155.48 1045.34,2155.48C1045.34,2155.48 1134.17,2113.97 1165.55,2136.11C1196.92,2158.24 1233.59,2288.32 1233.59,2288.32C1233.59,2288.32 1367.5,2106.95 1382.58,2306.95C1393.68,2454.05 1208.7,2462.4 1105.93,2346.99C1040.72,2273.77 937.334,2371.08 911.185,2384.61C881.654,2399.89 836.85,2375.93 836.85,2375.93C836.85,2375.93 814.29,2404.72 776.16,2409.94C723.632,2417.14 706.407,2386.7 706.407,2386.7C706.407,2386.7 607.387,2452.72 547.306,2460.76C444.177,2474.56 377.094,2410.1 377.094,2410.1C377.094,2410.1 298.411,2546.15 175.993,2601.32C71.895,2648.24 -78.16,2622.4 -85.514,2557C-139.642,2075.64 67.724,2441.86 67.724,2441.86C67.724,2441.86 59.46,2371.29 70.067,2294.73C77.443,2241.48 28.134,2231.28 26.151,2161.02C24.058,2086.84 41.568,2031.64 128.56,2033.89C188.785,2035.44 253.399,2162.53 253.399,2162.53Z" style="fill:white;fill-rule:nonzero;stroke:white;stroke-width:27.2px;"/>
            </g>
        </g>
        <g transform="matrix(1.06772,0,0,0.693307,-436.207,845.014)">
            <g transform="matrix(-0.738782,0.0743378,0.0516921,0.513725,3522.58,1149.85)">
                <path d="M253.399,2162.53C253.399,2162.53 247.437,1991.31 336.123,1996.39C393.401,1999.67 391.001,2138.91 391.001,2138.91C391.001,2138.91 425.33,2004.04 478.357,1998.87C554.792,1991.43 617.428,2114.28 617.428,2114.28C617.428,2114.28 648.822,1985.75 699.058,1984.89C754.899,1983.93 815.817,2093.14 815.817,2093.14C815.817,2093.14 886.533,2021.08 924.788,2031.47C963.042,2041.86 1045.34,2155.48 1045.34,2155.48C1045.34,2155.48 1134.17,2113.97 1165.55,2136.11C1196.92,2158.24 1233.59,2288.32 1233.59,2288.32C1233.59,2288.32 1367.5,2106.95 1382.58,2306.95C1393.68,2454.05 1208.7,2462.4 1105.93,2346.99C1040.72,2273.77 937.334,2371.08 911.185,2384.61C881.654,2399.89 836.85,2375.93 836.85,2375.93C836.85,2375.93 814.29,2404.72 776.16,2409.94C723.632,2417.14 706.407,2386.7 706.407,2386.7C706.407,2386.7 607.387,2452.72 547.306,2460.76C444.177,2474.56 377.094,2410.1 377.094,2410.1C377.094,2410.1 298.411,2546.15 175.993,2601.32C71.895,2648.24 -78.16,2622.4 -85.514,2557C-139.642,2075.64 67.724,2441.86 67.724,2441.86C67.724,2441.86 59.46,2371.29 70.067,2294.73C77.443,2241.48 28.134,2231.28 26.151,2161.02C24.058,2086.84 41.568,2031.64 128.56,2033.89C188.785,2035.44 253.399,2162.53 253.399,2162.53Z" style="fill:white;fill-rule:nonzero;stroke:white;stroke-width:22.6px;"/>
            </g>
            <g transform="matrix(-0.711516,0.0715942,0.0542342,0.538989,3498.3,1083.81)">
                <path d="M253.399,2162.53C253.399,2162.53 247.437,1991.31 336.123,1996.39C393.401,1999.67 391.001,2138.91 391.001,2138.91C391.001,2138.91 425.33,2004.04 478.357,1998.87C554.792,1991.43 617.428,2114.28 617.428,2114.28C617.428,2114.28 648.822,1985.75 699.058,1984.89C754.899,1983.93 815.817,2093.14 815.817,2093.14C815.817,2093.14 886.533,2021.08 924.788,2031.47C963.042,2041.86 1045.34,2155.48 1045.34,2155.48C1045.34,2155.48 1134.17,2113.97 1165.55,2136.11C1196.92,2158.24 1233.59,2288.32 1233.59,2288.32C1233.59,2288.32 1367.5,2106.95 1382.58,2306.95C1393.68,2454.05 1208.7,2462.4 1105.93,2346.99C1040.72,2273.77 937.334,2371.08 911.185,2384.61C881.654,2399.89 836.85,2375.93 836.85,2375.93C836.85,2375.93 814.29,2404.72 776.16,2409.94C723.632,2417.14 706.407,2386.7 706.407,2386.7C706.407,2386.7 607.387,2452.72 547.306,2460.76C444.177,2474.56 377.094,2410.1 377.094,2410.1C377.094,2410.1 298.411,2546.15 175.993,2601.32C71.895,2648.24 -78.16,2622.4 -85.514,2557C-139.642,2075.64 67.724,2441.86 67.724,2441.86C67.724,2441.86 59.46,2371.29 70.067,2294.73C77.443,2241.48 28.134,2231.28 26.151,2161.02C24.058,2086.84 41.568,2031.64 128.56,2033.89C188.785,2035.44 253.399,2162.53 253.399,2162.53Z" style="fill:rgb(11,61,119);fill-rule:nonzero;"/>
            </g>
            <g transform="matrix(-0.711516,0.0715942,0.0516921,0.513725,3484.88,1120)">
                <path d="M253.399,2162.53C253.399,2162.53 247.437,1991.31 336.123,1996.39C393.401,1999.67 391.001,2138.91 391.001,2138.91C391.001,2138.91 425.33,2004.04 478.357,1998.87C554.792,1991.43 617.428,2114.28 617.428,2114.28C617.428,2114.28 648.822,1985.75 699.058,1984.89C754.899,1983.93 815.817,2093.14 815.817,2093.14C815.817,2093.14 886.533,2021.08 924.788,2031.47C963.042,2041.86 1045.34,2155.48 1045.34,2155.48C1045.34,2155.48 1134.17,2113.97 1165.55,2136.11C1196.92,2158.24 1233.59,2288.32 1233.59,2288.32C1233.59,2288.32 1367.5,2106.95 1382.58,2306.95C1393.68,2454.05 1208.7,2462.4 1105.93,2346.99C1040.72,2273.77 937.334,2371.08 911.185,2384.61C881.654,2399.89 836.85,2375.93 836.85,2375.93C836.85,2375.93 814.29,2404.72 776.16,2409.94C723.632,2417.14 706.407,2386.7 706.407,2386.7C706.407,2386.7 607.387,2452.72 547.306,2460.76C444.177,2474.56 377.094,2410.1 377.094,2410.1C377.094,2410.1 298.411,2546.15 175.993,2601.32C71.895,2648.24 -78.16,2622.4 -85.514,2557C-139.642,2075.64 67.724,2441.86 67.724,2441.86C67.724,2441.86 59.46,2371.29 70.067,2294.73C77.443,2241.48 28.134,2231.28 26.151,2161.02C24.058,2086.84 41.568,2031.64 128.56,2033.89C188.785,2035.44 253.399,2162.53 253.399,2162.53Z" style="fill:white;fill-rule:nonzero;stroke:white;stroke-width:23.33px;"/>
            </g>
        </g>
        <g transform="matrix(1.17514,0,0,0.763058,-783.211,646.173)">
            <g transform="matrix(-0.738782,0.0743378,0.0516921,0.513725,3522.58,1149.85)">
                <path d="M253.399,2162.53C253.399,2162.53 247.437,1991.31 336.123,1996.39C393.401,1999.67 391.001,2138.91 391.001,2138.91C391.001,2138.91 425.33,2004.04 478.357,1998.87C554.792,1991.43 617.428,2114.28 617.428,2114.28C617.428,2114.28 648.822,1985.75 699.058,1984.89C754.899,1983.93 815.817,2093.14 815.817,2093.14C815.817,2093.14 886.533,2021.08 924.788,2031.47C963.042,2041.86 1045.34,2155.48 1045.34,2155.48C1045.34,2155.48 1134.17,2113.97 1165.55,2136.11C1196.92,2158.24 1233.59,2288.32 1233.59,2288.32C1233.59,2288.32 1367.5,2106.95 1382.58,2306.95C1393.68,2454.05 1208.7,2462.4 1105.93,2346.99C1040.72,2273.77 937.334,2371.08 911.185,2384.61C881.654,2399.89 836.85,2375.93 836.85,2375.93C836.85,2375.93 814.29,2404.72 776.16,2409.94C723.632,2417.14 706.407,2386.7 706.407,2386.7C706.407,2386.7 607.387,2452.72 547.306,2460.76C444.177,2474.56 377.094,2410.1 377.094,2410.1C377.094,2410.1 298.411,2546.15 175.993,2601.32C71.895,2648.24 -78.16,2622.4 -85.514,2557C-139.642,2075.64 67.724,2441.86 67.724,2441.86C67.724,2441.86 59.46,2371.29 70.067,2294.73C77.443,2241.48 28.134,2231.28 26.151,2161.02C24.058,2086.84 41.568,2031.64 128.56,2033.89C188.785,2035.44 253.399,2162.53 253.399,2162.53Z" style="fill:white;fill-rule:nonzero;stroke:white;stroke-width:20.54px;"/>
            </g>
            <g transform="matrix(-0.711516,0.0715942,0.0542342,0.538989,3498.3,1083.81)">
                <path d="M253.399,2162.53C253.399,2162.53 247.437,1991.31 336.123,1996.39C393.401,1999.67 391.001,2138.91 391.001,2138.91C391.001,2138.91 425.33,2004.04 478.357,1998.87C554.792,1991.43 617.428,2114.28 617.428,2114.28C617.428,2114.28 648.822,1985.75 699.058,1984.89C754.899,1983.93 815.817,2093.14 815.817,2093.14C815.817,2093.14 886.533,2021.08 924.788,2031.47C963.042,2041.86 1045.34,2155.48 1045.34,2155.48C1045.34,2155.48 1134.17,2113.97 1165.55,2136.11C1196.92,2158.24 1233.59,2288.32 1233.59,2288.32C1233.59,2288.32 1367.5,2106.95 1382.58,2306.95C1393.68,2454.05 1208.7,2462.4 1105.93,2346.99C1040.72,2273.77 937.334,2371.08 911.185,2384.61C881.654,2399.89 836.85,2375.93 836.85,2375.93C836.85,2375.93 814.29,2404.72 776.16,2409.94C723.632,2417.14 706.407,2386.7 706.407,2386.7C706.407,2386.7 607.387,2452.72 547.306,2460.76C444.177,2474.56 377.094,2410.1 377.094,2410.1C377.094,2410.1 298.411,2546.15 175.993,2601.32C71.895,2648.24 -78.16,2622.4 -85.514,2557C-139.642,2075.64 67.724,2441.86 67.724,2441.86C67.724,2441.86 59.46,2371.29 70.067,2294.73C77.443,2241.48 28.134,2231.28 26.151,2161.02C24.058,2086.84 41.568,2031.64 128.56,2033.89C188.785,2035.44 253.399,2162.53 253.399,2162.53Z" style="fill:rgb(11,61,119);fill-rule:nonzero;"/>
            </g>
            <g transform="matrix(-0.711516,0.0715942,0.0516921,0.513725,3484.88,1120)">
                <path d="M253.399,2162.53C253.399,2162.53 247.437,1991.31 336.123,1996.39C393.401,1999.67 391.001,2138.91 391.001,2138.91C391.001,2138.91 425.33,2004.04 478.357,1998.87C554.792,1991.43 617.428,2114.28 617.428,2114.28C617.428,2114.28 648.822,1985.75 699.058,1984.89C754.899,1983.93 815.817,2093.14 815.817,2093.14C815.817,2093.14 886.533,2021.08 924.788,2031.47C963.042,2041.86 1045.34,2155.48 1045.34,2155.48C1045.34,2155.48 1134.17,2113.97 1165.55,2136.11C1196.92,2158.24 1233.59,2288.32 1233.59,2288.32C1233.59,2288.32 1367.5,2106.95 1382.58,2306.95C1393.68,2454.05 1208.7,2462.4 1105.93,2346.99C1040.72,2273.77 937.334,2371.08 911.185,2384.61C881.654,2399.89 836.85,2375.93 836.85,2375.93C836.85,2375.93 814.29,2404.72 776.16,2409.94C723.632,2417.14 706.407,2386.7 706.407,2386.7C706.407,2386.7 607.387,2452.72 547.306,2460.76C444.177,2474.56 377.094,2410.1 377.094,2410.1C377.094,2410.1 298.411,2546.15 175.993,2601.32C71.895,2648.24 -78.16,2622.4 -85.514,2557C-139.642,2075.64 67.724,2441.86 67.724,2441.86C67.724,2441.86 59.46,2371.29 70.067,2294.73C77.443,2241.48 28.134,2231.28 26.151,2161.02C24.058,2086.84 41.568,2031.64 128.56,2033.89C188.785,2035.44 253.399,2162.53 253.399,2162.53Z" style="fill:white;fill-rule:nonzero;stroke:white;stroke-width:21.2px;"/>
            </g>
        </g>
        <g transform="matrix(1.27138,0,0,0.825553,-1066.38,473.52)">
            <g transform="matrix(-0.738782,0.0743378,0.0516921,0.513725,3522.58,1149.85)">
                <path d="M253.399,2162.53C253.399,2162.53 247.437,1991.31 336.123,1996.39C393.401,1999.67 391.001,2138.91 391.001,2138.91C391.001,2138.91 425.33,2004.04 478.357,1998.87C554.792,1991.43 617.428,2114.28 617.428,2114.28C617.428,2114.28 648.822,1985.75 699.058,1984.89C754.899,1983.93 815.817,2093.14 815.817,2093.14C815.817,2093.14 886.533,2021.08 924.788,2031.47C963.042,2041.86 1045.34,2155.48 1045.34,2155.48C1045.34,2155.48 1134.17,2113.97 1165.55,2136.11C1196.92,2158.24 1233.59,2288.32 1233.59,2288.32C1233.59,2288.32 1367.5,2106.95 1382.58,2306.95C1393.68,2454.05 1208.7,2462.4 1105.93,2346.99C1040.72,2273.77 937.334,2371.08 911.185,2384.61C881.654,2399.89 836.85,2375.93 836.85,2375.93C836.85,2375.93 814.29,2404.72 776.16,2409.94C723.632,2417.14 706.407,2386.7 706.407,2386.7C706.407,2386.7 607.387,2452.72 547.306,2460.76C444.177,2474.56 377.094,2410.1 377.094,2410.1C377.094,2410.1 298.411,2546.15 175.993,2601.32C71.895,2648.24 -78.16,2622.4 -85.514,2557C-139.642,2075.64 67.724,2441.86 67.724,2441.86C67.724,2441.86 59.46,2371.29 70.067,2294.73C77.443,2241.48 28.134,2231.28 26.151,2161.02C24.058,2086.84 41.568,2031.64 128.56,2033.89C188.785,2035.44 253.399,2162.53 253.399,2162.53Z" style="fill:white;fill-rule:nonzero;stroke:white;stroke-width:18.98px;"/>
            </g>
            <g transform="matrix(-0.711516,0.0715942,0.0542342,0.538989,3498.3,1083.81)">
                <path d="M253.399,2162.53C253.399,2162.53 247.437,1991.31 336.123,1996.39C393.401,1999.67 391.001,2138.91 391.001,2138.91C391.001,2138.91 425.33,2004.04 478.357,1998.87C554.792,1991.43 617.428,2114.28 617.428,2114.28C617.428,2114.28 648.822,1985.75 699.058,1984.89C754.899,1983.93 815.817,2093.14 815.817,2093.14C815.817,2093.14 886.533,2021.08 924.788,2031.47C963.042,2041.86 1045.34,2155.48 1045.34,2155.48C1045.34,2155.48 1134.17,2113.97 1165.55,2136.11C1196.92,2158.24 1233.59,2288.32 1233.59,2288.32C1233.59,2288.32 1367.5,2106.95 1382.58,2306.95C1393.68,2454.05 1208.7,2462.4 1105.93,2346.99C1040.72,2273.77 937.334,2371.08 911.185,2384.61C881.654,2399.89 836.85,2375.93 836.85,2375.93C836.85,2375.93 814.29,2404.72 776.16,2409.94C723.632,2417.14 706.407,2386.7 706.407,2386.7C706.407,2386.7 607.387,2452.72 547.306,2460.76C444.177,2474.56 377.094,2410.1 377.094,2410.1C377.094,2410.1 298.411,2546.15 175.993,2601.32C71.895,2648.24 -78.16,2622.4 -85.514,2557C-139.642,2075.64 67.724,2441.86 67.724,2441.86C67.724,2441.86 59.46,2371.29 70.067,2294.73C77.443,2241.48 28.134,2231.28 26.151,2161.02C24.058,2086.84 41.568,2031.64 128.56,2033.89C188.785,2035.44 253.399,2162.53 253.399,2162.53Z" style="fill:rgb(11,61,119);fill-rule:nonzero;"/>
            </g>
            <g transform="matrix(-0.711516,0.0715942,0.0516921,0.513725,3484.88,1120)">
                <path d="M253.399,2162.53C253.399,2162.53 247.437,1991.31 336.123,1996.39C393.401,1999.67 391.001,2138.91 391.001,2138.91C391.001,2138.91 425.33,2004.04 478.357,1998.87C554.792,1991.43 617.428,2114.28 617.428,2114.28C617.428,2114.28 648.822,1985.75 699.058,1984.89C754.899,1983.93 815.817,2093.14 815.817,2093.14C815.817,2093.14 886.533,2021.08 924.788,2031.47C963.042,2041.86 1045.34,2155.48 1045.34,2155.48C1045.34,2155.48 1134.17,2113.97 1165.55,2136.11C1196.92,2158.24 1233.59,2288.32 1233.59,2288.32C1233.59,2288.32 1367.5,2106.95 1382.58,2306.95C1393.68,2454.05 1208.7,2462.4 1105.93,2346.99C1040.72,2273.77 937.334,2371.08 911.185,2384.61C881.654,2399.89 836.85,2375.93 836.85,2375.93C836.85,2375.93 814.29,2404.72 776.16,2409.94C723.632,2417.14 706.407,2386.7 706.407,2386.7C706.407,2386.7 607.387,2452.72 547.306,2460.76C444.177,2474.56 377.094,2410.1 377.094,2410.1C377.094,2410.1 298.411,2546.15 175.993,2601.32C71.895,2648.24 -78.16,2622.4 -85.514,2557C-139.642,2075.64 67.724,2441.86 67.724,2441.86C67.724,2441.86 59.46,2371.29 70.067,2294.73C77.443,2241.48 28.134,2231.28 26.151,2161.02C24.058,2086.84 41.568,2031.64 128.56,2033.89C188.785,2035.44 253.399,2162.53 253.399,2162.53Z" style="fill:white;fill-rule:nonzero;stroke:white;stroke-width:19.6px;"/>
            </g>
        </g>
    </g>
</svg>
