<?xml version="1.0" encoding="UTF-8" standalone="no"?>
<!DOCTYPE svg PUBLIC "-//W3C//DTD SVG 1.1//EN" "http://www.w3.org/Graphics/SVG/1.1/DTD/svg11.dtd">
<svg width="100%" height="100%" viewBox="0 0 800 600" version="1.1" xmlns="http://www.w3.org/2000/svg" xmlns:xlink="http://www.w3.org/1999/xlink" xml:space="preserve" xmlns:serif="http://www.serif.com/" style="fill-rule:evenodd;clip-rule:evenodd;stroke-linecap:round;stroke-linejoin:round;stroke-miterlimit:1.5;">
    <g transform="matrix(0.449412,0,0,0.449412,105.866,-814.218)">
        <g transform="matrix(0.748494,0.0518797,-0.0441917,0.585558,302.5,1104.08)">
            <path d="M326.828,2306.64C345.74,2273.78 357.641,2275.66 379.81,2283.11C392.68,2287.43 446.025,2329.26 446.025,2329.26C446.025,2329.26 453.03,2233.83 506.056,2228.66C582.491,2221.22 632.673,2276.09 632.673,2276.09C632.673,2276.09 664.856,2171.49 715.092,2170.63C770.933,2169.68 786.579,2238.93 786.579,2238.93C786.579,2238.93 860.115,2210.67 881.436,2219.73C902.757,2228.79 898.515,2278.41 914.505,2293.29C930.32,2308 977.376,2308.99 977.376,2308.99C977.376,2308.99 1082.28,2309.34 1080.98,2366.05C1080.45,2388.77 980.848,2348.56 911.185,2384.61C881.654,2399.89 836.85,2375.93 836.85,2375.93C836.85,2375.93 814.29,2404.72 776.16,2409.94C723.632,2417.14 706.407,2386.7 706.407,2386.7C706.407,2386.7 697.399,2420.15 637.317,2428.19C534.189,2441.99 527.315,2326.2 527.315,2326.2C527.315,2326.2 531.504,2467.8 435.06,2428.35C308.214,2376.48 157.52,2522.79 158.737,2446.33C159.174,2418.87 221.098,2424.59 238.345,2410.9C252.04,2400.03 252.406,2373.64 262.22,2364.2C270.963,2355.78 297.231,2354.23 297.231,2354.23C297.231,2354.23 312.422,2331.68 326.828,2306.64Z" style="fill:white;fill-rule:nonzero;stroke:white;stroke-width:19.97px;"/>
        </g>
        <g>
            <g transform="matrix(0.763118,0.0495622,-0.0383047,0.477271,281.802,1367.75)">
                <path d="M326.828,2306.64C345.74,2273.78 357.641,2275.66 379.81,2283.11C392.68,2287.43 446.025,2329.26 446.025,2329.26C446.025,2329.26 453.03,2233.83 506.056,2228.66C582.491,2221.22 632.673,2276.09 632.673,2276.09C632.673,2276.09 664.856,2171.49 715.092,2170.63C770.933,2169.68 786.579,2238.93 786.579,2238.93C786.579,2238.93 860.115,2210.67 881.436,2219.73C902.757,2228.79 898.515,2278.41 914.505,2293.29C930.32,2308 977.376,2308.99 977.376,2308.99C977.376,2308.99 1062.25,2295.2 1060.94,2351.91C1060.42,2374.62 980.848,2348.56 911.185,2384.61C881.654,2399.89 836.85,2375.93 836.85,2375.93C836.85,2375.93 814.29,2404.72 776.16,2409.94C723.632,2417.14 706.407,2386.7 706.407,2386.7C706.407,2386.7 697.399,2420.15 637.317,2428.19C534.189,2441.99 527.315,2326.2 527.315,2326.2C527.315,2326.2 531.504,2467.8 435.06,2428.35C308.214,2376.48 157.52,2522.79 158.737,2446.33C159.174,2418.87 221.098,2424.59 238.345,2410.9C252.04,2400.03 252.406,2373.64 262.22,2364.2C270.963,2355.78 297.231,2354.23 297.231,2354.23C297.231,2354.23 312.422,2331.68 326.828,2306.64Z" style="fill:rgb(11,61,119);fill-rule:nonzero;"/>
            </g>
            <g transform="matrix(0.753414,0.048932,-0.0404497,0.503997,292.551,1293.64)">
                <path d="M326.828,2306.64C345.74,2273.78 357.641,2275.66 379.81,2283.11C392.68,2287.43 446.025,2329.26 446.025,2329.26C446.025,2329.26 453.03,2233.83 506.056,2228.66C582.491,2221.22 632.673,2276.09 632.673,2276.09C632.673,2276.09 664.856,2171.49 715.092,2170.63C770.933,2169.68 786.579,2238.93 786.579,2238.93C786.579,2238.93 860.115,2210.67 881.436,2219.73C902.757,2228.79 898.515,2278.41 914.505,2293.29C930.32,2308 977.376,2308.99 977.376,2308.99C977.376,2308.99 1062.25,2295.2 1060.94,2351.91C1060.42,2374.62 980.848,2348.56 911.185,2384.61C881.654,2399.89 836.85,2375.93 836.85,2375.93C836.85,2375.93 814.29,2404.72 776.16,2409.94C723.632,2417.14 706.407,2386.7 706.407,2386.7C706.407,2386.7 697.399,2420.15 637.317,2428.19C534.189,2441.99 527.315,2326.2 527.315,2326.2C527.315,2326.2 531.504,2467.8 435.06,2428.35C308.214,2376.48 157.52,2522.79 158.737,2446.33C159.174,2418.87 221.098,2424.59 238.345,2410.9C252.04,2400.03 252.406,2373.64 262.22,2364.2C270.963,2355.78 297.231,2354.23 297.231,2354.23C297.231,2354.23 312.422,2331.68 326.828,2306.64Z" style="fill:white;fill-rule:nonzero;stroke:white;stroke-width:21.03px;"/>
            </g>
            <g transform="matrix(0.635812,0.0520483,-0.0519522,0.434111,391.498,1416.43)">
                <path d="M326.828,2306.64C345.74,2273.78 357.641,2275.66 379.81,2283.11C392.68,2287.43 446.025,2329.26 446.025,2329.26C446.025,2329.26 453.03,2233.83 506.056,2228.66C582.491,2221.22 632.673,2276.09 632.673,2276.09C632.673,2276.09 664.856,2171.49 715.092,2170.63C770.933,2169.68 786.579,2238.93 786.579,2238.93C786.579,2238.93 860.115,2210.67 881.436,2219.73C902.757,2228.79 898.515,2278.41 914.505,2293.29C930.32,2308 977.376,2308.99 977.376,2308.99C977.376,2308.99 1082.28,2309.34 1080.98,2366.05C1080.45,2388.77 980.848,2348.56 911.185,2384.61C881.654,2399.89 836.85,2375.93 836.85,2375.93C836.85,2375.93 814.29,2404.72 776.16,2409.94C723.632,2417.14 706.407,2386.7 706.407,2386.7C706.407,2386.7 697.399,2420.15 637.317,2428.19C534.189,2441.99 527.315,2326.2 527.315,2326.2C527.315,2326.2 531.504,2467.8 435.06,2428.35C308.214,2376.48 157.52,2522.79 158.737,2446.33C159.174,2418.87 221.098,2424.59 238.345,2410.9C252.04,2400.03 252.406,2373.64 262.22,2364.2C270.963,2355.78 297.231,2354.23 297.231,2354.23C297.231,2354.23 312.422,2331.68 326.828,2306.64Z" style="fill:white;fill-rule:nonzero;stroke:white;stroke-width:24.97px;"/>
            </g>
            <g transform="matrix(0.745069,0.0609922,-0.05008,0.418467,329.719,1488.07)">
                <path d="M326.828,2306.64C345.74,2273.78 357.641,2275.66 379.81,2283.11C392.68,2287.43 446.025,2329.26 446.025,2329.26C446.025,2329.26 453.03,2233.83 506.056,2228.66C582.491,2221.22 632.673,2276.09 632.673,2276.09C632.673,2276.09 664.856,2171.49 715.092,2170.63C770.933,2169.68 786.579,2238.93 786.579,2238.93C786.579,2238.93 860.115,2210.67 881.436,2219.73C902.757,2228.79 898.515,2278.41 914.505,2293.29C930.32,2308 977.376,2308.99 977.376,2308.99C977.376,2308.99 1062.25,2295.2 1060.94,2351.91C1060.42,2374.62 980.848,2348.56 911.185,2384.61C881.654,2399.89 836.85,2375.93 836.85,2375.93C836.85,2375.93 814.29,2404.72 776.16,2409.94C723.632,2417.14 706.407,2386.7 706.407,2386.7C706.407,2386.7 697.399,2420.15 637.317,2428.19C534.189,2441.99 527.315,2326.2 527.315,2326.2C527.315,2326.2 531.504,2467.8 435.06,2428.35C308.214,2376.48 157.52,2522.79 158.737,2446.33C159.174,2418.87 221.098,2424.59 238.345,2410.9C252.04,2400.03 252.406,2373.64 262.22,2364.2C270.963,2355.78 297.231,2354.23 297.231,2354.23C297.231,2354.23 312.422,2331.68 326.828,2306.64Z" style="fill:rgb(11,61,119);fill-rule:nonzero;"/>
            </g>
            <g transform="matrix(0.739573,0.0605423,-0.0524861,0.438572,335.487,1427)">
                <path d="M326.828,2306.64C345.74,2273.78 357.641,2275.66 379.81,2283.11C392.68,2287.43 446.025,2329.26 446.025,2329.26C446.025,2329.26 453.03,2233.83 506.056,2228.66C582.491,2221.22 632.673,2276.09 632.673,2276.09C632.673,2276.09 664.856,2171.49 715.092,2170.63C770.933,2169.68 786.579,2238.93 786.579,2238.93C786.579,2238.93 860.115,2210.67 881.436,2219.73C902.757,2228.79 898.515,2278.41 914.505,2293.29C930.32,2308 977.376,2308.99 977.376,2308.99C977.376,2308.99 1062.25,2295.2 1060.94,2351.91C1060.42,2374.62 980.848,2348.56 911.185,2384.61C881.654,2399.89 836.85,2375.93 836.85,2375.93C836.85,2375.93 814.29,2404.72 776.16,2409.94C723.632,2417.14 706.407,2386.7 706.407,2386.7C706.407,2386.7 697.399,2420.15 637.317,2428.19C534.189,2441.99 527.315,2326.2 527.315,2326.2C527.315,2326.2 531.504,2467.8 435.06,2428.35C308.214,2376.48 157.52,2522.79 158.737,2446.33C159.174,2418.87 221.098,2424.59 238.345,2410.9C252.04,2400.03 252.406,2373.64 262.22,2364.2C270.963,2355.78 297.231,2354.23 297.231,2354.23C297.231,2354.23 312.422,2331.68 326.828,2306.64Z" style="fill:white;fill-rule:nonzero;stroke:white;stroke-width:22.34px;"/>
            </g>
        </g>
    </g>
</svg>
