<?xml version="1.0" encoding="UTF-8" standalone="no"?>
<!DOCTYPE svg PUBLIC "-//W3C//DTD SVG 1.1//EN" "http://www.w3.org/Graphics/SVG/1.1/DTD/svg11.dtd">
<svg width="100%" height="100%" viewBox="0 0 2732 2048" version="1.1" style="fill-rule:evenodd;clip-rule:evenodd;stroke-linecap:round;stroke-linejoin:round;stroke-miterlimit:1.5;">
    <g transform="matrix(-2.80217,0,0,2.79101,5998.54,-3213.78)">
        <path d="M1410.31,1830.95L1815.5,1835.83C1815.5,1835.83 1773.62,1808.05 1749.6,1803.16C1693.51,1791.76 1544.26,1779.01 1468.16,1783.87C1437.58,1785.82 1410.31,1830.95 1410.31,1830.95Z" style="fill:#f6d8ae;stroke:#f6d8ae;stroke-width:3.71px;"/>
    </g>
    <g transform="matrix(-2.80217,0,0,2.79101,5998.54,-3213.78)">
        <path d="M1591.08,1800.72L1592.92,1697.13L1498.93,1487.15L1612.91,1209.75C1612.91,1209.75 1654.11,1214.99 1671.51,1210.1C1685.3,1206.23 1689.96,1239.43 1689.96,1239.43L1788.79,1203.51C1788.79,1203.51 1727.34,1237.72 1697.08,1283.44C1665.86,1330.63 1643.04,1426.51 1643.04,1426.51L1653.17,1285.06C1653.17,1285.06 1627.34,1279.56 1624.71,1268.25C1618.56,1241.76 1612.91,1217.42 1612.91,1217.42L1505.52,1487.43L1603.86,1698.65L1603.37,1800.32" style="fill:#f6d8ae;stroke:#f6d8ae;stroke-width:3.71px;"/>
    </g>
    <g transform="matrix(-2.80217,0,0,2.79101,5998.54,-3213.78)">
        <path d="M1643.04,1426.51C1643.04,1426.51 1634.33,1470.4 1652.35,1473.99C1670.74,1477.65 1711.54,1450.95 1766.78,1344.78C1857.82,1169.83 1788.79,1203.51 1788.79,1203.51" style="fill:none;stroke:#f6d8ae;stroke-width:3.71px;"/>
    </g>
    <g transform="matrix(3.1672,-0.688307,0.728981,3.35437,-5892.92,-2951.76)">
        <path d="M1916.64,1391.46C1916.64,1391.46 1894.82,1387.23 1877.27,1390.96C1864.76,1393.62 1846.82,1404.85 1841.96,1417.93C1837.1,1431.01 1835.9,1442.68 1844.98,1454.43C1853.47,1465.42 1871.05,1467.8 1883.58,1465.92C1895.51,1464.13 1911.1,1451.98 1916.98,1440.76C1926.54,1422.48 1926.58,1406.8 1926.58,1406.8L1937.84,1398.34L1930.45,1383.02L1916.64,1391.46Z" style="fill:none;stroke:#f6d8ae;stroke-width:1.83px;"/>
    </g>
    <g transform="matrix(3.21916,0.376808,-0.376808,3.21916,-4495.38,-4754.42)">
        <path d="M1928.61,1382.91C1928.61,1382.91 1899.59,1410.3 1894.25,1406.8C1890.55,1404.38 1896.64,1398.23 1901.65,1395.5C1909.78,1391.07 1917.36,1398.6 1911.8,1406.8C1909.91,1409.59 1902,1420.13 1899.95,1417.95C1898.91,1416.85 1898.26,1412.46 1902.97,1409.09C1907.74,1405.67 1916.95,1404.58 1919.11,1406.8C1921.6,1409.36 1918.13,1420.05 1915.47,1424.37C1913.91,1426.9 1905.02,1432 1909.26,1421.79C1911.8,1415.69 1924.62,1409.96 1927.63,1410.77C1931.33,1411.77 1927.81,1424.67 1927.08,1427.37C1925.63,1432.77 1921.2,1435.63 1920.5,1427.98C1919.93,1421.88 1933.21,1387.6 1933.21,1387.6" style="fill:none;stroke:#f6d8ae;stroke-width:0.94px;stroke-miterlimit:1.4939;"/>
    </g>
</svg>
