<?xml version="1.0" encoding="UTF-8" standalone="no"?>
<!DOCTYPE svg PUBLIC "-//W3C//DTD SVG 1.1//EN" "http://www.w3.org/Graphics/SVG/1.1/DTD/svg11.dtd">
<svg width="100%" height="100%" viewBox="0 0 2732 2048" version="1.1" xmlns="http://www.w3.org/2000/svg" style="fill-rule:evenodd;clip-rule:evenodd;stroke-linejoin:round;stroke-miterlimit:2;">
    <g transform="matrix(0.0834037,-0.996516,0.996516,0.0834037,746.485,2138.53)">
        <path d="M1109.24,1223.51C1105.25,1227.37 1103.43,1231.95 1103.58,1236.71C1103.77,1242.64 1107.45,1248.31 1116.02,1251.65C1117.96,1252.41 1120.26,1253.05 1122.88,1253.58C1110.8,1258.53 1104.41,1266.09 1103.66,1274.23C1103.11,1280.26 1106.73,1286.91 1117.21,1290.32C1119.19,1290.96 1121.52,1291.51 1124.15,1291.98L1122.73,1292.37C1109.67,1296.09 1103.55,1303.37 1103.17,1310.31C1102.82,1316.76 1106.34,1322.98 1115.21,1327.01C1118.05,1328.3 1121.67,1329.39 1125.95,1330.27C1123.52,1330.86 1121.31,1331.49 1119.35,1332.15C1108.19,1335.93 1103.52,1342.57 1103.23,1347.5C1103.01,1351.06 1104.26,1354.73 1108.34,1357.64C1109.72,1358.62 1111.82,1359.62 1114.6,1360.48C1106.83,1364.36 1103.5,1369.79 1103.29,1374C1103.21,1375.54 1103.44,1377.09 1104.08,1378.63C1103.81,1379.48 1103.67,1380.38 1103.67,1381.31C1103.63,1390.38 1110.29,1398.95 1123.86,1404.54C1143.23,1412.52 1178.51,1415.94 1213.97,1415.32C1256.32,1414.58 1298.8,1407.94 1315,1398.23C1322.73,1393.6 1325.96,1387.68 1325.98,1382.17C1326,1377.45 1323.82,1372.64 1319.17,1368.45C1322.91,1364.08 1324.92,1359.18 1325.18,1353.94C1325.46,1348.18 1322.13,1342.03 1314.43,1337.28C1322.69,1331.9 1326.28,1325.35 1326.04,1319.49C1325.93,1316.84 1324.95,1314.03 1322.5,1311.38C1320.33,1309.04 1316.16,1306.38 1310.06,1304.11L1309.42,1303.88C1319.44,1297.21 1324.17,1289.22 1323.88,1281.67C1323.72,1277.66 1322.03,1273.62 1318.36,1269.91C1317.03,1268.57 1315.37,1267.24 1313.39,1265.94C1319.25,1261.5 1321.5,1256.35 1321.37,1251.97C1321.23,1247.62 1319.18,1243.05 1314.49,1238.92C1310.53,1235.42 1304.16,1231.92 1295.9,1228.81C1294.18,1228.17 1292.37,1227.53 1290.48,1226.91C1294.41,1224.71 1297.53,1222.49 1299.63,1220.27C1305.01,1214.62 1306.35,1208.73 1304.24,1203C1304.23,1202.61 1304.19,1202.2 1304.12,1201.8C1304.12,1201.8 1290.98,1126.77 1288.92,1053.27C1287.91,1017.47 1289.47,982.034 1296.72,956.168C1313.84,895.12 1369.51,855.917 1409.14,790.063C1423.39,766.377 1435.69,739.415 1443.76,707.132C1454.78,663.027 1448,577.66 1426.52,494.236C1406.73,417.382 1374.45,342.312 1333.31,302.29C1297.05,267.013 1261.05,243.925 1225.78,229.972C1181.41,212.422 1138.11,209.27 1096.64,214.798C1054.46,220.418 1014.12,235.026 974.915,264.618C945.04,287.164 915.783,318.481 886.923,361.375C851.019,414.736 838.447,490.79 840.45,564.536C842.696,647.245 863.215,726.886 888.097,767.797C905.502,796.415 923.099,819.342 940.323,838.587C997.13,902.061 1050.13,923.835 1077.38,981.24C1088.35,1004.35 1094.51,1037.51 1098.04,1071.44C1105.26,1141.02 1101.06,1213.87 1101.06,1213.87C1100.91,1216.51 1101.9,1219.08 1103.79,1220.93C1105.27,1222.39 1107.2,1223.29 1109.24,1223.51ZM1284.51,1195.02C1280.88,1171.99 1272.31,1112.4 1270.66,1053.78C1269.6,1015.97 1271.48,978.558 1279.14,951.238C1296.67,888.728 1352.91,848.075 1393.48,780.644C1406.88,758.382 1418.45,733.046 1426.03,702.703C1436.59,660.448 1429.4,578.719 1408.82,498.795C1389.94,425.489 1359.8,353.569 1320.56,315.396C1286.31,282.073 1252.37,260.158 1219.05,246.978C1177.82,230.673 1137.59,227.792 1099.05,232.929C1059.86,238.154 1022.37,251.721 985.937,279.221C957.443,300.727 929.631,330.678 902.106,371.59C868.122,422.101 856.851,494.233 858.749,564.038C860.897,643.03 879.978,719.21 903.743,758.281C920.484,785.806 937.403,807.862 953.97,826.373C1012.26,891.499 1065.97,914.482 1093.93,973.382C1105.64,998.037 1112.5,1033.35 1116.26,1069.55C1121.98,1124.58 1120.7,1181.62 1119.83,1204.51C1149.89,1202.33 1237.86,1196.14 1276.43,1195.14C1279.42,1195.07 1282.12,1195.03 1284.51,1195.02ZM1232.94,1308.74C1219.7,1307.45 1206,1306.53 1192.81,1306.07C1166.26,1305.15 1141.81,1306.04 1127.76,1310.03C1126.82,1310.3 1125.81,1310.69 1124.87,1311.1C1127.69,1312.07 1131.17,1312.82 1135.18,1313.42C1158.48,1316.88 1197.54,1314.71 1232.94,1308.74ZM1249.71,1266.86C1238.14,1265.29 1225.76,1264.15 1213.39,1263.51C1181.35,1261.85 1149.27,1263.41 1131.27,1270C1128.69,1270.95 1126.45,1271.97 1124.67,1273.16C1126.67,1273.72 1129.15,1274.32 1131.53,1274.63C1150.24,1277.12 1181.78,1275.79 1213.1,1272.19C1225.62,1270.76 1238.1,1268.95 1249.71,1266.86ZM1213.97,1230.99L1212.35,1230.82C1180.55,1227.78 1148.63,1227.72 1130.63,1232.72C1128.19,1233.4 1126.06,1234.15 1124.32,1235.06C1124.94,1235.27 1125.59,1235.47 1126.19,1235.61C1133.91,1237.4 1145.31,1237.8 1158.51,1237.27C1173.29,1236.67 1190.23,1234.85 1206.98,1232.16C1209.32,1231.79 1211.65,1231.4 1213.97,1230.99ZM1267.24,1371.05C1257.96,1369.86 1247.8,1369.03 1237.29,1368.48C1201.15,1366.59 1160.84,1368.36 1136.65,1373.06L1136.5,1373.09C1149.83,1375.01 1168.29,1376.23 1188.25,1376.47C1204.89,1376.67 1222.56,1376.15 1239.21,1374.68C1249.06,1373.81 1258.56,1372.62 1267.24,1371.05ZM1220.25,1341.23L1215.5,1341.18C1189.58,1341.01 1163.53,1342.47 1144.44,1345.36C1164.92,1345.82 1192.91,1344.34 1220.25,1341.23ZM1306.37,1381.6L1306.09,1381.38C1305.23,1380.77 1304.23,1380.2 1303.11,1379.66C1288.09,1386.41 1265.51,1390.81 1240.83,1393C1210.86,1395.65 1177.77,1395.31 1152.39,1393.23C1169.78,1396.23 1191.69,1397.3 1213.65,1396.92C1246.05,1396.36 1278.6,1392.52 1297.29,1386.08C1300.7,1384.9 1304.35,1382.83 1306.37,1381.6ZM1305.42,1283.03C1304.96,1282.58 1304.1,1281.78 1303.37,1281.29C1301.28,1279.89 1298.6,1278.59 1295.45,1277.34C1294.13,1276.81 1292.74,1276.3 1291.28,1275.81C1273.58,1281.33 1248.79,1286.16 1223.18,1289.45C1244.13,1291.14 1264.66,1293.77 1281.41,1296.9C1285.82,1295.33 1289.84,1293.66 1293.38,1291.92C1297.84,1289.71 1301.46,1287.46 1303.85,1284.98C1304.51,1284.29 1305.17,1283.7 1305.42,1283.03ZM1301.19,1251.77L1300.85,1251.52C1298.8,1250.1 1296.15,1248.75 1293.04,1247.42C1285.05,1244.02 1274.36,1240.94 1262.17,1238.32C1252.67,1241.27 1242.06,1244 1230.96,1246.35C1253.62,1248.33 1275.19,1251.9 1291.27,1256.58C1291.86,1256.36 1292.44,1256.14 1293.01,1255.92C1295.97,1254.79 1299.11,1253.02 1301.19,1251.77ZM1277.22,1213.47L1276.91,1213.47C1266.44,1213.74 1252.32,1214.4 1236.71,1215.26C1245.4,1216.49 1253.85,1217.93 1261.81,1219.55C1267.67,1217.61 1272.88,1215.58 1277.22,1213.47ZM1304.28,1321.88C1301.13,1320.63 1296.77,1319.07 1292.39,1317.98C1289.38,1317.23 1286.13,1316.51 1282.67,1315.8C1273.11,1318.92 1262.24,1321.7 1250.7,1324.08C1264.55,1325.04 1277.43,1326.57 1288.24,1328.66C1293.38,1327.06 1297.88,1325.34 1301.54,1323.52C1302.47,1323.06 1303.41,1322.47 1304.28,1321.88ZM1306.64,1354.23C1305.23,1353.37 1301.21,1351.01 1297.44,1349.81C1294.87,1348.98 1292.02,1348.22 1288.94,1347.53C1282.43,1349.36 1275.2,1351.06 1267.47,1352.61C1280.98,1354.27 1292.95,1356.59 1302.13,1359.55C1304.46,1358.05 1306.11,1356.37 1306.64,1354.23Z" style="fill:#f2d35d;"/>
    </g>
    <g transform="matrix(0.0834037,-0.996516,1.20295,0.100681,498.272,2117.75)">
        <path d="M1229.29,819.386C1233.24,793.542 1232.34,770.812 1224.6,755.047C1215.55,736.63 1198.09,726.304 1168.77,729.218C1144.38,731.643 1131.82,745.352 1127.32,764.406C1123.56,780.342 1125.81,800.323 1130.62,819.074C1123.45,805.737 1116.08,793.581 1108.78,782.928C1101.82,772.78 1094.17,763.659 1086.77,757.752C1080.78,752.968 1074.65,750.165 1069.08,749.468C1058.42,748.132 1046.19,753.528 1039.76,774.815C1035.97,787.337 1035.84,806.32 1040.97,831.153C1045.45,852.854 1053.92,879.213 1067.27,909.786C1082.26,944.126 1101.31,958.067 1119.26,960.099C1131.24,961.456 1143.53,957.882 1155.28,950.245C1156.9,949.194 1158.51,948.061 1160.11,946.852C1166.58,974.087 1170.64,1002.13 1171.13,1029.64L1174.25,1202.5C1174.33,1206.67 1178.48,1210.01 1183.52,1209.94C1188.55,1209.88 1192.58,1206.44 1192.51,1202.27L1190.69,1101.04L1199.49,1200.09C1199.87,1204.29 1204.28,1207.44 1209.35,1207.13C1214.41,1206.82 1218.22,1203.17 1217.85,1198.97L1202.93,1031.24C1200.44,1003.33 1202.7,972.586 1208.56,941.417C1209.71,941.822 1210.87,942.178 1212.03,942.486C1223.54,945.537 1235.72,944.405 1248.37,937.348C1262.15,929.658 1277,914.097 1292.04,887.899C1305.07,865.209 1320.27,836.725 1329.32,808.167C1335.65,788.187 1338.95,768.159 1336.7,749.934C1334.49,732.028 1327.06,723.229 1319.47,720.592C1313.44,718.498 1306.15,719.064 1298.21,723.38C1282.04,732.174 1259.95,760.341 1239.3,799.312C1235.85,805.832 1232.5,812.533 1229.29,819.386ZM1155.54,929.149C1153.4,921.44 1151.08,913.818 1148.6,906.32C1133.56,860.744 1112.96,819.708 1092.88,790.409C1086.89,781.679 1080.45,773.747 1074.08,768.665C1071.35,766.486 1068.89,764.767 1066.35,764.45C1065.24,764.311 1064.48,765.062 1063.57,766.057C1061.18,768.647 1059.24,772.737 1057.5,778.495C1054.14,789.633 1054.44,806.509 1059,828.596C1063.34,849.582 1071.57,875.064 1084.48,904.629C1096,931.007 1107.95,943.512 1121.74,945.072C1129.22,945.919 1136.64,943.082 1143.98,938.312C1147.91,935.759 1151.77,932.673 1155.54,929.149ZM1182.12,895.199C1195.43,873.162 1205.39,847.828 1209.38,827.394C1214.63,800.552 1215.44,776.673 1207.62,760.769C1201.72,748.755 1190.09,742.392 1170.96,744.294C1155.41,745.84 1148.18,755.179 1145.31,767.32C1141.12,785.094 1145.68,808.432 1152.17,828.342C1160.03,852.422 1170.12,876.417 1182.12,895.199ZM1171.69,910.796C1169.94,908.382 1168.21,905.858 1166.53,903.237L1167.47,906.131C1167.87,907.405 1168.28,908.679 1168.68,909.953L1169.74,913.374C1170.4,912.524 1171.05,911.664 1171.69,910.796ZM1191.77,932.062C1188.72,929.709 1185.73,927.036 1182.82,924.067C1180.36,927.153 1177.84,930.102 1175.28,932.887C1179.22,947.931 1182.49,963.273 1184.88,978.698C1186.22,963.404 1188.56,947.763 1191.77,932.062ZM1199.65,899.454C1197.51,903.071 1195.29,906.62 1193,910.067C1193.98,911.231 1194.97,912.354 1195.98,913.43L1196.06,913.1C1197.19,908.545 1198.38,903.995 1199.65,899.454ZM1211.79,925.822C1213.69,926.748 1215.64,927.483 1217.62,928.01C1226.18,930.28 1235.1,927.826 1244.7,920.323C1254.64,912.557 1264.84,899.882 1275.46,881.368C1288.06,859.432 1302.82,831.915 1311.56,804.307C1317.3,786.177 1320.47,768.018 1318.43,751.481C1317.78,746.201 1316.77,741.996 1315.35,738.804C1314.47,736.825 1313.73,735.322 1312.4,734.641C1311.68,734.27 1310.94,734.876 1309.99,735.278C1307.72,736.23 1305.33,737.824 1302.77,739.904C1288.95,751.106 1272.36,774.786 1256.13,805.43C1238.37,838.947 1223.66,877.384 1214.07,916.159C1213.27,919.378 1212.51,922.6 1211.79,925.822Z" style="fill:#f2d35d;"/>
    </g>
    <g transform="matrix(0.763081,-0.115443,0.037366,0.246991,225.606,984.996)">
        <path d="M1019.01,658.556L432.678,300.925C422.38,295.151 412.503,316.291 410.634,348.104C408.765,379.917 415.608,410.433 425.905,416.207L1015.52,717.981C1020.83,720.957 1025.92,710.06 1026.88,693.661C1027.85,677.263 1024.32,661.533 1019.01,658.556Z" style="fill:#f2d35d;"/>
    </g>
    <g transform="matrix(0.86692,0.0694411,-0.0253754,0.316793,186.675,654.336)">
        <path d="M1019.01,665.016L432.669,313.456C423.571,308.355 414.671,324.426 412.807,349.323C410.943,374.219 416.816,398.574 425.914,403.676L1015.52,711.521C1020.22,714.151 1024.8,705.867 1025.76,693.033C1026.72,680.2 1023.7,667.646 1019.01,665.016Z" style="fill:#f2d35d;"/>
    </g>
    <g transform="matrix(0.667304,0.557744,-0.203813,0.243848,583.697,93.8908)">
        <path d="M1019.01,665.016L432.669,313.456C423.571,308.355 414.671,324.426 412.807,349.323C410.943,374.219 416.816,398.574 425.914,403.676L1015.52,711.521C1020.22,714.151 1024.8,705.867 1025.76,693.033C1026.72,680.2 1023.7,667.646 1019.01,665.016Z" style="fill:#f2d35d;"/>
    </g>
    <g transform="matrix(0.264188,0.828599,-0.30279,0.0965405,1242.03,-161.699)">
        <path d="M1019.01,665.016L432.669,313.456C423.571,308.355 414.671,324.426 412.807,349.323C410.943,374.219 416.816,398.574 425.914,403.676L1015.52,711.521C1020.22,714.151 1024.8,705.867 1025.76,693.033C1026.72,680.2 1023.7,667.646 1019.01,665.016Z" style="fill:#f2d35d;"/>
    </g>
    <g transform="matrix(0.752189,0.269348,-0.0945732,0.264108,382.696,414.601)">
        <path d="M1019.09,661.885L432.83,307.383C422.911,301.821 413.273,320.24 411.32,348.489C409.367,376.738 415.834,404.188 425.753,409.749L1015.44,714.652C1020.56,717.519 1025.52,708.024 1026.53,693.463C1027.54,678.902 1024.2,664.752 1019.09,661.885Z" style="fill:#f2d35d;"/>
    </g>
    <g transform="matrix(0.435493,0.669838,-0.235193,0.15291,931.15,-13.5392)">
        <path d="M1019.09,661.885L432.83,307.383C422.911,301.821 413.273,320.24 411.32,348.489C409.367,376.738 415.834,404.188 425.753,409.749L1015.44,714.652C1020.56,717.519 1025.52,708.024 1026.53,693.463C1027.54,678.902 1024.2,664.752 1019.09,661.885Z" style="fill:#f2d35d;"/>
    </g>
    <g transform="matrix(0.0797994,0.794964,-0.279128,0.0280191,1487.35,-101.506)">
        <path d="M1019.09,661.885L432.83,307.383C422.911,301.821 413.273,320.24 411.32,348.489C409.367,376.738 415.834,404.188 425.753,409.749L1015.44,714.652C1020.56,717.519 1025.52,708.024 1026.53,693.463C1027.54,678.902 1024.2,664.752 1019.09,661.885Z" style="fill:#f2d35d;"/>
    </g>
    <g transform="matrix(0.720554,-0.0706659,-0.038157,-0.389073,376.048,1579.55)">
        <path d="M1014.25,706.736L423.434,394.393C412.757,388.406 406.713,367.492 409.946,347.718C413.179,327.945 424.472,316.752 435.149,322.739L1020.28,669.801C1025.79,672.887 1028.9,683.668 1027.24,693.86C1025.57,704.053 1019.75,709.822 1014.25,706.736Z" style="fill:#f2d35d;"/>
    </g>
    <g transform="matrix(0.799567,-0.342147,-0.182699,-0.426951,441.785,1932.99)">
        <path d="M1014.78,703.829L424.465,388.754C415.568,383.765 410.508,366.188 413.172,349.527C415.836,332.866 425.221,323.389 434.118,328.378L1019.75,672.708C1024.34,675.279 1026.95,684.34 1025.58,692.928C1024.2,701.516 1019.36,706.401 1014.78,703.829Z" style="fill:#f2d35d;"/>
    </g>
    <g transform="matrix(0.506297,-0.494137,-0.248041,-0.254145,867.966,2018.61)">
        <path d="M1014.38,708.715L423.687,398.233C412.697,392.071 406.287,369.294 409.38,347.401C412.473,325.508 423.906,312.737 434.896,318.899L1020.15,667.822C1025.82,670.998 1029.12,682.739 1027.53,694.024C1025.93,705.309 1020.04,711.892 1014.38,708.715Z" style="fill:#f2d35d;"/>
    </g>
    <g transform="matrix(0.115283,-0.69801,-0.350379,-0.0578683,1522.85,2115.4)">
        <path d="M1014.38,708.715L423.687,398.233C412.697,392.071 406.287,369.294 409.38,347.401C412.473,325.508 423.906,312.737 434.896,318.899L1020.15,667.822C1025.82,670.998 1029.12,682.739 1027.53,694.024C1025.93,705.309 1020.04,711.892 1014.38,708.715Z" style="fill:#f2d35d;"/>
    </g>
    <g transform="matrix(0.389627,-0.795165,-0.421594,-0.206579,1196.19,2316.59)">
        <path d="M1014.84,703.67L424.582,388.444C415.839,383.542 410.851,366.173 413.45,349.683C416.049,333.193 425.258,323.785 434.001,328.688L1019.69,672.867C1024.2,675.395 1026.77,684.347 1025.43,692.847C1024.09,701.347 1019.35,706.197 1014.84,703.67Z" style="fill:#f2d35d;"/>
    </g>
    <g transform="matrix(0.86692,0.0694411,0.0302735,-0.377942,148.374,1345.58)">
        <path d="M1015.21,707.595L425.296,396.059C416.274,391 410.741,370.093 412.946,349.4C415.151,328.708 424.266,316.014 433.287,321.073L1019.33,668.942C1023.98,671.55 1026.83,682.327 1025.69,692.993C1024.56,703.659 1019.86,710.202 1015.21,707.595Z" style="fill:#f2d35d;"/>
    </g>
</svg>
